<svg width="32" height="32" viewBox="0 0 32 32" fill="none" xmlns="http://www.w3.org/2000/svg">
<path fill-rule="evenodd" clip-rule="evenodd" d="M30.2223 16C30.2223 18.5544 29.6902 20.969 28.744 23.1111H16.889C19.078 19.7584 21.3334 15.6984 21.3334 11.5556C21.3334 6.22432 17.7231 1.73631 12.8141 0.403015C13.8383 0.139299 14.9047 0 16.0001 0C23.8548 0 30.2223 7.16345 30.2223 16ZM17.7778 11.5556C17.7778 7.13728 14.1961 3.55556 9.77783 3.55556C3.86614 3.55556 1.77783 11.1174 1.77783 16C1.77783 24.8366 8.14534 32 16.0001 32C20.2122 32 23.9967 29.94 26.6009 26.6667H9.77783C10.0906 26.2679 10.4181 25.857 10.7545 25.4349C13.8806 21.5122 17.7778 16.622 17.7778 11.5556Z" fill="#7859CF"/>
</svg>
